<svg width="576" height="576" viewBox="0 0 576 576" fill="none" xmlns="http://www.w3.org/2000/svg">
<path fill-rule="evenodd" clip-rule="evenodd" d="M31.6325 31.6325C0 63.2649 0 114.177 0 216V360C0 461.823 0 512.735 31.6325 544.368C63.2649 576 114.177 576 216 576H360C461.823 576 512.735 576 544.368 544.368C576 512.735 576 461.823 576 360V216C576 114.177 576 63.2649 544.368 31.6325C512.735 0 461.823 0 360 0H216C114.177 0 63.2649 0 31.6325 31.6325ZM173.249 284.446C170.607 278.204 166.71 273.438 161.539 270.151C156.369 266.871 150.127 265.228 142.803 265.228C133.971 265.228 126.95 267.325 121.729 271.525C116.502 275.726 112.818 281.294 110.665 288.242C110.527 288.681 110.404 289.13 110.281 289.579L110.281 289.579L110.28 289.58L110.28 289.58L110.28 289.581C110.248 289.699 110.215 289.818 110.182 289.936V253.597C110.182 247.781 110.205 242.886 110.261 238.899C110.311 234.917 110.395 231.793 110.502 229.533C110.608 227.273 110.827 225.602 111.147 224.525L110.665 222.748L61.0852 232.276V233.246C63.6705 234.322 65.7117 235.696 67.2203 237.362C68.7288 239.033 69.8055 241.13 70.4504 243.66C71.0953 246.189 71.4206 249.503 71.4206 253.591V321.424C71.4206 327.991 71.0168 333.083 70.2093 336.689C69.4017 340.295 68.1119 342.964 66.3342 344.686C64.5565 346.407 61.9432 347.647 58.5 348.398V350.013H111.797C111.04 346.677 110.586 343.312 110.423 339.919C110.367 338.753 110.322 337.485 110.289 336.122C113.396 341.209 117.394 345.033 122.295 347.591C127.247 350.176 133.113 351.466 139.898 351.466C147.11 351.466 153.52 349.744 159.117 346.295C164.713 342.852 169.132 337.788 172.363 331.115C175.593 324.441 177.208 316.416 177.208 307.051C177.208 298.224 175.89 290.687 173.249 284.44V284.446ZM132.956 332.09C130.371 337.367 126.978 340.003 122.783 340.003C119.766 340.003 117.153 338.898 114.949 336.694C112.745 334.491 111.158 331.72 110.188 328.384V327.245V313.192C110.188 305.01 110.889 298.415 112.285 293.407C113.682 288.399 115.487 284.85 117.697 282.747C119.901 280.649 122.351 279.595 125.049 279.595C128.817 279.595 131.722 282.018 133.769 286.863C135.81 291.708 136.837 298.437 136.837 307.051C136.837 318.463 135.547 326.808 132.962 332.085L132.956 332.09ZM227.976 241.378L189.214 229.371V253.378L227.976 241.378ZM229.187 336.689C229.995 340.301 231.285 342.964 233.062 344.686L233.057 344.692C234.834 346.413 237.442 347.653 240.891 348.404V350.019H176.613V348.404C179.95 347.653 182.507 346.413 184.285 344.692C186.063 342.97 187.324 340.301 188.081 336.695C188.833 333.089 189.214 327.997 189.214 321.43V297.041C189.214 290.362 188.867 285.276 188.166 281.777C187.465 278.277 186.253 275.748 184.532 274.184C182.804 272.619 180.275 271.57 176.939 271.032V269.417L227.976 265.379V321.424C227.976 327.997 228.38 333.083 229.187 336.689ZM321.622 329.825C317.259 333.7 311.472 335.64 304.26 335.64C294.996 335.64 288.272 332.438 284.072 326.029C280.415 320.454 278.357 312.945 277.881 303.496H335.591C335.373 296.284 333.438 289.796 329.776 284.037C326.114 278.277 320.865 273.729 314.029 270.387C307.187 267.05 299.09 265.379 289.724 265.379C280.359 265.379 272.547 267.073 265.016 270.466C257.479 273.858 251.423 278.973 246.846 285.809C242.27 292.645 239.982 300.967 239.982 310.764C239.982 319.809 242.052 327.537 246.202 333.941C250.346 340.345 255.971 345.168 263.081 348.398C270.186 351.629 278.206 353.244 287.145 353.244C300.817 353.244 311.612 349.61 319.525 342.342C327.437 335.074 332.793 325.086 335.597 312.384H332.529C329.624 320.135 325.991 325.95 321.628 329.825H321.622ZM289.727 270.23C292.092 270.231 294.06 271.364 295.618 273.623C297.177 275.883 298.31 279.253 299.011 283.717C299.65 287.805 299.948 292.74 299.914 298.494H277.78C277.83 289.863 278.873 283.027 280.926 277.98C283.022 272.811 285.954 270.231 289.727 270.23ZM508.538 336.689C509.133 340.3 510.125 342.964 511.527 344.686L511.516 344.675C512.918 346.396 514.909 347.636 517.494 348.387V350.002H460.641V348.387C463.008 347.636 464.841 346.396 466.131 344.675C467.427 342.953 468.341 340.284 468.879 336.678C469.417 333.072 469.687 327.98 469.687 321.413V294.927C469.687 289.549 468.879 285.753 467.264 283.543C465.649 281.339 463.439 280.234 460.641 280.234C457.304 280.234 454.315 281.928 451.68 285.321C449.038 288.714 447.345 293.749 446.593 300.423V321.419C446.593 327.991 446.885 333.078 447.479 336.683C448.068 340.295 449.066 342.959 450.468 344.68C451.87 346.402 453.861 347.641 456.446 348.393V350.008H399.594V348.393C401.96 347.641 403.794 346.402 405.084 344.68C406.379 342.959 407.293 340.289 407.832 336.683C408.37 333.078 408.639 327.986 408.639 321.419V294.933C408.639 289.555 407.832 285.758 406.216 283.549C404.601 281.345 402.392 280.24 399.594 280.24C396.257 280.24 393.268 281.934 390.632 285.326C387.996 288.719 386.297 293.755 385.546 300.428V321.424C385.546 327.997 385.837 333.083 386.432 336.689C387.021 340.3 388.047 342.964 389.499 344.686C390.952 346.407 393.027 347.647 395.719 348.398V350.013H335.153V348.398C338.49 347.647 341.025 346.407 342.746 344.686C344.468 342.964 345.702 340.295 346.459 336.689C347.21 333.083 347.592 327.991 347.592 321.424V297.036C347.592 290.469 347.21 285.382 346.459 281.771C345.707 278.165 344.468 275.496 342.746 273.774C341.019 272.058 338.546 270.819 335.316 270.062V268.447H390.066C388.776 269.523 387.806 271.06 387.161 273.051C386.516 275.047 386.084 277.845 385.871 281.451C385.776 283.055 385.697 284.973 385.647 287.199C387.856 281.793 391.187 277.212 395.64 273.46C402.156 267.97 410.204 265.222 418.817 265.222C427.431 265.222 434.217 267.701 439.168 272.652C442.915 276.404 445.242 281.726 446.156 288.613C448.349 282.584 451.859 277.531 456.693 273.46C463.209 267.97 471.257 265.222 479.871 265.222C488.484 265.222 495.27 267.701 500.222 272.652C505.173 277.604 507.652 285.304 507.652 295.746V321.424C507.652 327.997 507.944 333.083 508.538 336.689Z" fill="currentColor"/>
</svg>
